<svg width="16" height="17" viewBox="0 0 16 17" fill="none" xmlns="http://www.w3.org/2000/svg">
<g id="Copyright icon">
<g id="Group">
<g id="Group_2">
<path id="Vector" d="M7.91571 5.96227L7.90569 5.96181L7.89567 5.96214C7.64947 5.97035 7.1862 5.99188 6.79721 6.37225C6.41112 6.7498 6.15 7.42744 6.15 8.612C6.15 9.30014 6.26201 9.89453 6.54069 10.3282C6.83019 10.7786 7.28165 11.0276 7.88037 11.0459L7.89054 11.0462L7.9007 11.0457C8.43085 11.0187 8.81497 10.8246 9.06905 10.5482C9.25209 10.3491 9.35917 10.1165 9.40904 9.894H10.3476C10.1918 10.7573 9.35853 11.754 7.872 11.754C6.78396 11.754 6.09267 11.3291 5.66498 10.7427C5.2287 10.1445 5.05 9.35387 5.05 8.612C5.05 7.39765 5.36679 6.56016 5.86031 6.02799C6.35189 5.49791 7.04916 5.238 7.88 5.238C8.61258 5.238 9.22347 5.46355 9.65621 5.85533C10.0349 6.19814 10.2918 6.68132 10.3687 7.29H9.42932C9.38846 7.07659 9.30048 6.82446 9.13758 6.5959C8.89975 6.26221 8.50884 5.99008 7.91571 5.96227ZM0.25 8.5C0.25 4.22207 3.72207 0.75 8 0.75C12.2779 0.75 15.75 4.22207 15.75 8.5C15.75 12.7779 12.2779 16.25 8 16.25C3.72207 16.25 0.25 12.7779 0.25 8.5ZM1.35 8.5C1.35 12.1661 4.33393 15.15 8 15.15C11.6661 15.15 14.65 12.1661 14.65 8.5C14.65 4.83393 11.6661 1.85 8 1.85C4.33393 1.85 1.35 4.83393 1.35 8.5Z" fill="#ECF3E8" stroke="#F1F4F3" stroke-width="0.5"/>
</g>
</g>
</g>
</svg>
