<svg width="32" height="32" viewBox="0 0 32 32" fill="none" xmlns="http://www.w3.org/2000/svg">
<g id="icon/discord">
<path id="vector" d="M25.241 7.52182C23.5413 6.74195 21.7187 6.16738 19.8131 5.83829C19.7784 5.83194 19.7437 5.84782 19.7258 5.87956C19.4914 6.29647 19.2318 6.84035 19.0499 7.26785C17.0003 6.96099 14.9612 6.96099 12.9535 7.26785C12.7717 6.83085 12.5026 6.29647 12.2671 5.87956C12.2493 5.84887 12.2146 5.833 12.1799 5.83829C10.2753 6.16632 8.45268 6.7409 6.75199 7.52182C6.73726 7.52816 6.72465 7.53876 6.71627 7.5525C3.25916 12.7173 2.31211 17.7552 2.7767 22.7307C2.77881 22.755 2.79247 22.7783 2.81139 22.7931C5.09229 24.4681 7.30173 25.485 9.47015 26.1591C9.50485 26.1697 9.54162 26.157 9.56371 26.1284C10.0766 25.4279 10.5339 24.6893 10.9259 23.9126C10.9491 23.8671 10.927 23.8132 10.8797 23.7952C10.1544 23.5201 9.46384 23.1846 8.79954 22.8037C8.74699 22.773 8.74279 22.6979 8.79112 22.6619C8.93092 22.5571 9.07075 22.4481 9.20423 22.3381C9.22838 22.318 9.26203 22.3137 9.29043 22.3264C13.6546 24.319 18.3793 24.319 22.692 22.3264C22.7204 22.3127 22.7541 22.3169 22.7793 22.337C22.9128 22.4471 23.0526 22.5571 23.1934 22.6619C23.2418 22.6979 23.2386 22.773 23.1861 22.8037C22.5218 23.192 21.8312 23.5201 21.1049 23.7941C21.0576 23.8121 21.0365 23.8671 21.0597 23.9126C21.4601 24.6882 21.9174 25.4268 22.4208 26.1273C22.4419 26.157 22.4797 26.1697 22.5144 26.1591C24.6933 25.485 26.9027 24.4681 29.1836 22.7931C29.2036 22.7783 29.2163 22.7561 29.2184 22.7317C29.7744 16.9796 28.2871 11.983 25.2756 7.55355C25.2683 7.53876 25.2557 7.52816 25.241 7.52182ZM11.5776 19.7012C10.2637 19.7012 9.1811 18.4949 9.1811 17.0135C9.1811 15.532 10.2427 14.3258 11.5776 14.3258C12.923 14.3258 13.9952 15.5426 13.9741 17.0135C13.9741 18.4949 12.9125 19.7012 11.5776 19.7012ZM20.4384 19.7012C19.1246 19.7012 18.0419 18.4949 18.0419 17.0135C18.0419 15.532 19.1035 14.3258 20.4384 14.3258C21.7839 14.3258 22.856 15.5426 22.835 17.0135C22.835 18.4949 21.7839 19.7012 20.4384 19.7012Z" fill="#ECF3E8"/>
</g>
</svg>
