<svg width="46" height="41" viewBox="0 0 46 41" fill="none" xmlns="http://www.w3.org/2000/svg">
<g id="Layer_1" clip-path="url(#clip0_3839_99)">
<path id="Vector" d="M38.714 35.3614V33.1335C35.047 37.7787 29.4236 40.7467 23.1113 40.7467H33.4209C36.3453 40.7467 38.714 38.337 38.714 35.3588V35.3614Z" fill="url(#paint0_linear_3839_99)"/>
<path id="Vector_2" d="M40.9751 6.42992V11.1852C41.0493 11.3338 41.1185 11.4772 41.1851 11.6206C41.2081 11.6692 41.2312 11.7204 41.2568 11.7717C42.0301 11.9253 42.7446 12.2556 43.3566 12.7191V6.4248C44.5729 5.93826 45.4282 4.7347 45.4282 3.32629C45.4282 1.49023 43.9686 -0.00268555 42.1658 -0.00268555C40.3631 -0.00268555 38.8958 1.49023 38.8958 3.32629C38.8958 4.74495 39.7536 5.9485 40.9751 6.42736V6.42992Z" fill="url(#paint1_linear_3839_99)"/>
<path id="Vector_3" d="M24.5146 9.57471H24.5351C24.9166 9.60288 25.2649 9.32376 25.3084 8.92684V8.88331C25.3443 8.47871 25.0549 8.11252 24.658 8.08179H24.5863C24.1894 8.05362 23.8488 8.37628 23.836 8.78088V8.82441C23.8206 9.22133 24.1254 9.54398 24.5146 9.57471Z" fill="url(#paint2_linear_3839_99)"/>
<path id="Vector_4" d="M21.6261 8.07654C14.0104 8.59893 8.06179 13.0879 7.54195 18.6576C7.5061 19.0827 7.839 19.4514 8.2564 19.4514H8.29994C8.66868 19.4514 8.97085 19.1646 9.0067 18.7907C9.45483 13.956 14.8196 10.0458 21.6978 9.5669C22.087 9.53873 22.3917 9.21351 22.3764 8.8166V8.77306C22.361 8.36847 22.023 8.04581 21.6261 8.07398V8.07654Z" fill="url(#paint3_linear_3839_99)"/>
<path id="Vector_5" d="M38.709 33.1284C39.7128 31.8583 40.5707 30.4601 41.2493 28.9698C42.0789 27.1542 42.6577 25.1927 42.9317 23.1338C43.0546 22.2299 43.1109 21.3029 43.1109 20.3708C43.1109 17.2979 42.44 14.3812 41.2416 11.7718H41.257C41.2339 11.7206 41.2083 11.6719 41.1852 11.6207C41.1161 11.4747 41.0495 11.3313 40.9753 11.1828C37.6821 4.55558 30.9192 0 23.1064 0C15.2935 0 8.14906 4.8219 4.96349 11.7718L4.9558 11.7871C2.54102 12.2839 0.712646 14.458 0.712646 17.0648V23.7074C0.712646 26.3245 2.54614 28.4986 4.96605 28.9851C3.76762 26.3681 3.0967 23.459 3.0967 20.3861C3.0967 20.3016 3.0967 20.2171 3.0967 20.1326C3.0967 20.212 3.0967 20.2914 3.0967 20.3733C3.0967 23.4462 3.76762 26.3629 4.96605 28.9723C5.64464 30.4653 6.50506 31.8609 7.50631 33.131L7.51143 33.1387H7.50631V35.3665C7.50631 38.3421 9.875 40.7544 12.7994 40.7544H23.1166C17.5009 40.7544 12.4281 38.4036 8.79436 34.6111C12.4281 38.3985 17.4983 40.7467 23.1089 40.7467C29.4186 40.7467 35.042 37.7788 38.7116 33.1336L38.709 33.1284ZM6.03132 19.4515C6.03132 13.9919 10.5049 9.32114 16.8274 7.42618C18.771 6.84489 20.8888 6.52223 23.1064 6.52223C32.535 6.52223 40.1814 12.3121 40.1814 19.4489H40.1891C40.1891 26.5857 32.5427 32.3679 23.1141 32.3679C13.6854 32.3679 6.03132 26.5883 6.03132 19.4515Z" fill="url(#paint4_linear_3839_99)"/>
<path id="Vector_6" d="M43.3491 12.7346C42.7345 12.2711 42.0201 11.9408 41.2493 11.7871C42.4477 14.3965 43.1186 17.3132 43.1186 20.3861C43.1186 21.3182 43.0597 22.2452 42.9394 23.1492C42.6654 25.208 42.0866 27.1695 41.2569 28.9851C43.6743 28.5011 45.5027 26.3245 45.5027 23.71V17.0751C45.5027 15.2902 44.6499 13.7179 43.3516 12.7397L43.3491 12.7346Z" fill="url(#paint5_linear_3839_99)"/>
<path id="Vector_7" d="M2.65103 12.7346C3.26561 12.2711 3.98005 11.9408 4.75084 11.7871C3.55241 14.3965 2.88149 17.3132 2.88149 20.3861C2.88149 21.3182 2.94039 22.2452 3.06075 23.1492C3.33475 25.208 3.91347 27.1695 4.74316 28.9851C2.32581 28.4986 0.5 26.3219 0.5 23.7074V17.0725C0.5 15.2877 1.35273 13.7154 2.65103 12.7371V12.7346Z" fill="url(#paint6_linear_3839_99)"/>
<path id="Vector_8" fill-rule="evenodd" clip-rule="evenodd" d="M7.54198 33.1335C7.54198 33.1335 12.5662 40.6494 23.247 40.7595H12.4228C12.4228 40.7595 8.15912 40.5546 7.54454 35.8812C7.51381 35.6508 7.52405 33.2309 7.54454 33.1335H7.54198Z" fill="url(#paint7_linear_3839_99)"/>
<path id="Vector_9" fill-rule="evenodd" clip-rule="evenodd" d="M38.7986 33.1335C38.7986 33.1335 33.7744 40.6494 23.0935 40.7595H33.9178C33.9178 40.7595 38.1814 40.5546 38.796 35.8812C38.8267 35.6508 38.8165 33.2309 38.796 33.1335H38.7986Z" fill="url(#paint8_linear_3839_99)"/>
</g>
<defs>
<linearGradient id="paint0_linear_3839_99" x1="22.973" y1="49.6197" x2="53.9786" y2="8.00751" gradientUnits="userSpaceOnUse">
<stop stop-color="#9AECA4"/>
<stop offset="1" stop-color="#13678B"/>
</linearGradient>
<linearGradient id="paint1_linear_3839_99" x1="16.6147" y1="40.3624" x2="47.6229" y2="-1.2497" gradientUnits="userSpaceOnUse">
<stop offset="0.77" stop-color="#13678B"/>
<stop offset="0.91" stop-color="#9AECA4"/>
</linearGradient>
<linearGradient id="paint2_linear_3839_99" x1="4.45628" y1="35.825" x2="35.4644" y2="-5.78718" gradientUnits="userSpaceOnUse">
<stop stop-color="#9AECA4"/>
<stop offset="1" stop-color="#13678B"/>
</linearGradient>
<linearGradient id="paint3_linear_3839_99" x1="0.169564" y1="32.629" x2="31.1752" y2="-8.98313" gradientUnits="userSpaceOnUse">
<stop offset="0.4" stop-color="#9AECA4"/>
<stop offset="0.84" stop-color="#13678B"/>
</linearGradient>
<linearGradient id="paint4_linear_3839_99" x1="8.69449" y1="38.9823" x2="39.7027" y2="-2.62983" gradientUnits="userSpaceOnUse">
<stop offset="0.09" stop-color="#9AECA4"/>
<stop offset="0.76" stop-color="#13678B"/>
</linearGradient>
<linearGradient id="paint5_linear_3839_99" x1="40.2915" y1="13.8639" x2="46.2991" y2="30.77" gradientUnits="userSpaceOnUse">
<stop stop-color="#9AECA4"/>
<stop offset="0.76" stop-color="#13678B"/>
</linearGradient>
<linearGradient id="paint6_linear_3839_99" x1="5.70856" y1="13.8639" x2="-0.296416" y2="30.77" gradientUnits="userSpaceOnUse">
<stop offset="0.4" stop-color="#9AECA4"/>
<stop offset="0.84" stop-color="#13678B"/>
</linearGradient>
<linearGradient id="paint7_linear_3839_99" x1="12.2896" y1="41.1103" x2="17.6877" y2="33.8634" gradientUnits="userSpaceOnUse">
<stop stop-color="#9AECA4"/>
<stop offset="1" stop-color="#13678B"/>
</linearGradient>
<linearGradient id="paint8_linear_3839_99" x1="34.0509" y1="41.1103" x2="28.6529" y2="33.8634" gradientUnits="userSpaceOnUse">
<stop stop-color="#9AECA4"/>
<stop offset="0.38" stop-color="#13678B"/>
</linearGradient>
<clipPath id="clip0_3839_99">
<rect width="45" height="40.7595" fill="white" transform="translate(0.5)"/>
</clipPath>
</defs>
</svg>
