<svg width="160" height="60" viewBox="0 0 160 60" fill="none" xmlns="http://www.w3.org/2000/svg">
<g id="Logo text">
<g id="Union">
<path d="M7.74283 43.5832V16.4407C7.74283 14.2682 6.00566 12.5 3.87142 12.5C1.73717 12.5 0 14.2619 0 16.4407V43.5832C0 45.7619 1.73097 47.5238 3.87142 47.5238C6.01186 47.5238 7.74283 45.7619 7.74283 43.5832Z" fill="url(#paint0_linear_3839_110)"/>
<path d="M23.5759 47.5175C26.4051 47.5175 28.074 44.2968 26.4795 41.9223L18.4947 30.0372L26.4857 18.1015C28.0802 15.7207 26.4051 12.5 23.5759 12.5C22.4406 12.5 21.3797 13.0557 20.7158 14.003L14.0835 23.4252L12.0051 26.4375L11.9865 26.4628L9.56067 29.9361L9.6103 30.0435L9.56067 30.094L11.9803 33.561L11.9989 33.5926L14.0773 36.5481L20.7158 46.0208C21.3735 46.9618 22.4406 47.5175 23.5759 47.5175Z" fill="url(#paint1_linear_3839_110)"/>
<path d="M50.924 32.999H48.0825C46.6928 32.999 45.483 33.9526 45.1417 35.323C44.6516 37.2807 46.1034 39.1815 48.0825 39.1815H52.4813L53.7966 44.581C54.2185 46.305 55.7385 47.5175 57.4819 47.5175C60.0318 47.5175 61.8558 45.0041 61.1113 42.5222L53.4181 16.9711C52.6116 14.3188 50.2043 12.5 47.4745 12.5C44.7447 12.5 42.3312 14.3188 41.5309 16.9774L33.8191 42.7054C33.0994 45.0988 34.8614 47.5175 37.3182 47.5175C38.9934 47.5175 40.4576 46.3618 40.867 44.7073L42.2444 39.1815L43.8016 32.9927L44.5833 29.7656C45.4643 26.267 46.4012 22.1811 47.2325 18.4678H47.4373C48.1509 21.8654 49.0831 25.5768 49.9088 28.8644L49.9091 28.8656L49.9094 28.8667L50.0368 29.3741L50.1361 29.7656L50.9178 32.9927L50.924 32.999Z" fill="url(#paint2_linear_3839_110)"/>
<path d="M69.245 16.3901V47.5175H78.5885C88.4098 47.5175 94.8497 42.1875 94.8497 30.1951C94.8497 19.6361 89.6134 13.9904 81.9884 12.7589C80.152 12.4621 78.6382 14.0346 78.6382 15.9228C78.6382 17.6279 79.9038 18.9983 81.4859 19.5667C84.8424 20.7728 87.0014 23.5389 87.0014 30.1951C87.0014 38.5879 83.4216 41.1708 78.1729 41.1708H76.8762V16.3838C76.8762 14.243 75.17 12.5 73.0606 12.5C70.9512 12.5 69.245 14.243 69.245 16.3901Z" fill="url(#paint3_linear_3839_110)"/>
<path d="M110.509 40.8487V19.1183H122.012C123.805 19.1183 125.263 17.6342 125.263 15.8091C125.263 13.9841 123.805 12.5 122.012 12.5H102.822V47.5175H122.508C124.32 47.5175 125.784 46.0271 125.784 44.1831C125.784 42.3391 124.32 40.8487 122.508 40.8487H110.509Z" fill="url(#paint4_linear_3839_110)"/>
<path d="M123.029 29.4688C123.029 31.2939 121.571 32.778 119.778 32.778H115.578C113.785 32.778 112.327 31.2939 112.327 29.4688C112.327 27.6437 113.785 26.1597 115.578 26.1597H119.778C121.571 26.1597 123.029 27.6437 123.029 29.4688Z" fill="url(#paint5_linear_3839_110)"/>
<path d="M131.529 15.8091C131.529 13.9841 132.981 12.5 134.78 12.5H156.749C158.542 12.5 160 13.9841 160 15.8091C160 17.6342 158.542 19.1183 156.749 19.1183H134.78C132.987 19.1183 131.529 17.6342 131.529 15.8091Z" fill="url(#paint6_linear_3839_110)"/>
<path d="M142.175 43.6021C142.175 45.7682 143.9 47.5175 146.022 47.5175V47.5238C148.15 47.5238 149.869 45.7682 149.869 43.6084V24.7009C149.869 22.5348 148.15 20.7855 146.022 20.7855C143.894 20.7855 142.175 22.5411 142.175 24.7009V43.6021Z" fill="url(#paint7_linear_3839_110)"/>
</g>
</g>
<defs>
<linearGradient id="paint0_linear_3839_110" x1="17.2939" y1="16.5346" x2="123.897" y2="125.481" gradientUnits="userSpaceOnUse">
<stop stop-color="#9AECA4"/>
<stop offset="1" stop-color="#13678B"/>
</linearGradient>
<linearGradient id="paint1_linear_3839_110" x1="17.2939" y1="16.5346" x2="123.897" y2="125.481" gradientUnits="userSpaceOnUse">
<stop stop-color="#9AECA4"/>
<stop offset="1" stop-color="#13678B"/>
</linearGradient>
<linearGradient id="paint2_linear_3839_110" x1="17.2939" y1="16.5346" x2="123.897" y2="125.481" gradientUnits="userSpaceOnUse">
<stop stop-color="#9AECA4"/>
<stop offset="1" stop-color="#13678B"/>
</linearGradient>
<linearGradient id="paint3_linear_3839_110" x1="17.2939" y1="16.5346" x2="123.897" y2="125.481" gradientUnits="userSpaceOnUse">
<stop stop-color="#9AECA4"/>
<stop offset="1" stop-color="#13678B"/>
</linearGradient>
<linearGradient id="paint4_linear_3839_110" x1="17.2939" y1="16.5346" x2="123.897" y2="125.481" gradientUnits="userSpaceOnUse">
<stop stop-color="#9AECA4"/>
<stop offset="1" stop-color="#13678B"/>
</linearGradient>
<linearGradient id="paint5_linear_3839_110" x1="17.2939" y1="16.5346" x2="123.897" y2="125.481" gradientUnits="userSpaceOnUse">
<stop stop-color="#9AECA4"/>
<stop offset="1" stop-color="#13678B"/>
</linearGradient>
<linearGradient id="paint6_linear_3839_110" x1="17.2939" y1="16.5346" x2="123.897" y2="125.481" gradientUnits="userSpaceOnUse">
<stop stop-color="#9AECA4"/>
<stop offset="1" stop-color="#13678B"/>
</linearGradient>
<linearGradient id="paint7_linear_3839_110" x1="17.2939" y1="16.5346" x2="123.897" y2="125.481" gradientUnits="userSpaceOnUse">
<stop stop-color="#9AECA4"/>
<stop offset="1" stop-color="#13678B"/>
</linearGradient>
</defs>
</svg>
