<svg width="32" height="32" viewBox="0 0 32 32" fill="none" xmlns="http://www.w3.org/2000/svg">
<g id="icon/github">
<path id="vector" fill-rule="evenodd" clip-rule="evenodd" d="M15.9998 2.99561C8.63317 2.99561 2.6665 8.96227 2.6665 16.3289C2.6665 22.2289 6.48317 27.2123 11.7832 28.9789C12.4498 29.0956 12.6998 28.6956 12.6998 28.3456C12.6998 28.0289 12.6832 26.9789 12.6832 25.8623C9.33317 26.4789 8.4665 25.0456 8.19984 24.2956C8.04984 23.9123 7.39984 22.7289 6.83317 22.4123C6.3665 22.1623 5.69984 21.5456 6.8165 21.5289C7.8665 21.5123 8.6165 22.4956 8.8665 22.8956C10.0665 24.9123 11.9832 24.3456 12.7498 23.9956C12.8665 23.1289 13.2165 22.5456 13.5998 22.2123C10.6332 21.8789 7.53317 20.7289 7.53317 15.6289C7.53317 14.1789 8.04984 12.9789 8.89984 12.0456C8.7665 11.7123 8.29984 10.3456 9.03317 8.51227C9.03317 8.51227 10.1498 8.16227 12.6998 9.87894C13.7665 9.57894 14.8998 9.42894 16.0332 9.42894C17.1665 9.42894 18.2998 9.57894 19.3665 9.87894C21.9165 8.14561 23.0332 8.51227 23.0332 8.51227C23.7665 10.3456 23.2998 11.7123 23.1665 12.0456C24.0165 12.9789 24.5332 14.1623 24.5332 15.6289C24.5332 20.7456 21.4165 21.8789 18.4498 22.2123C18.9332 22.6289 19.3498 23.4289 19.3498 24.6789C19.3498 26.4623 19.3332 27.8956 19.3332 28.3456C19.3332 28.6956 19.5832 29.1123 20.2498 28.9789C22.8967 28.0854 25.1968 26.3842 26.8262 24.115C28.4557 21.8457 29.3325 19.1226 29.3332 16.3289C29.3332 8.96227 23.3665 2.99561 15.9998 2.99561Z" fill="#ECF3E8"/>
</g>
</svg>
