<svg width="97" height="64" viewBox="0 0 97 64" fill="none" xmlns="http://www.w3.org/2000/svg">
<path fill-rule="evenodd" clip-rule="evenodd" d="M22.1824 0.813287C25.344 1.78916 28.373 3.78528 30.6162 6.37126L32.3243 8.3405L33.8989 7.78855C40.6405 5.42694 52.7875 5.18218 61.0646 7.24101L64.4375 8.08017L66.2357 6.09411C69.8677 2.08271 74.5769 0.0234668 80.1186 0.0234668C85.4868 0.0234668 90.5287 2.15589 93.6085 5.72848C95.2158 7.5934 95.1316 8.11297 93.3056 7.59258C92.5903 7.38902 91.9596 7.22227 91.904 7.22227C91.8489 7.22227 92.6113 8.39411 93.5987 9.82671C94.5862 11.2587 95.6725 13.3613 96.0127 14.4982C96.6822 16.7375 96.8637 22.8197 96.2613 22.8197C96.0574 22.8197 95.4687 22.1447 94.9523 21.32L94.0132 19.8203L93.7848 22.6197C93.4968 26.1456 92.3862 28.626 89.9137 31.2637C88.1783 33.1149 84.0309 35.6164 82.695 35.6173C82.4098 35.6177 82.1661 37.3011 82.0143 40.3169C81.8843 42.9014 81.4892 46.0961 81.1368 47.4158C78.641 56.7602 71.6353 61.7835 58.5853 63.586C54.1326 64.201 41.9622 64.1144 37.4265 63.4352C21.8993 61.1112 14.8748 53.5724 14.8748 39.2339C14.8748 36.0569 14.7893 35.6177 14.17 35.6173C12.7515 35.6168 8.50055 33.2592 6.85816 31.5623C4.43778 29.0615 3.0821 26.0764 2.81347 22.6542L2.59123 19.8203L1.69867 21.32C0.21944 23.8056 -0.139738 23.2845 0.0442684 18.9203C0.225928 14.6103 1.14775 12.0167 3.54853 9.06031C4.24604 8.20172 4.75707 7.43988 4.68418 7.36739C4.6113 7.29503 3.97701 7.3995 3.27466 7.59947C1.47284 8.11297 1.39429 7.58665 2.99596 5.72848C7.24812 0.795647 15.377 -1.28675 22.1824 0.813287Z" fill="white"/>
<path fill-rule="evenodd" clip-rule="evenodd" d="M69.4308 10.9959C73.6161 12.5236 77.5958 16.4949 79.8294 21.9448C80.8171 24.3545 81.3585 26.797 81.4898 29.1198C86.1781 27.7073 89.5881 23.4088 89.5881 18.3255C89.5881 12.0925 84.4616 7.03979 78.1379 7.03979C74.6525 7.03979 71.5309 8.57465 69.4308 10.9959Z" fill="#171826"/>
<path fill-rule="evenodd" clip-rule="evenodd" d="M27.1942 10.9961C23.0089 12.5239 19.0292 16.4952 16.7955 21.9451C15.8079 24.3547 15.2665 26.7972 15.1353 29.1199C10.4469 27.7073 7.03693 23.409 7.03693 18.3255C7.03693 12.0927 12.1634 7.03992 18.4871 7.03992C21.9725 7.03992 25.0941 8.57477 27.1942 10.9961Z" fill="#171826"/>
<path d="M56.0586 36.7901C56.0586 32.3162 52.426 28.6895 47.9449 28.6895C43.4638 28.6895 39.8312 32.3162 39.8312 36.7901V43.3935C39.8312 47.8673 43.4638 51.4941 47.9449 51.4941C52.426 51.4941 56.0586 47.8673 56.0586 43.3935V36.7901Z" fill="#171826"/>
<path d="M33.1959 30.1606H33.188C31.1533 30.1606 29.5039 31.8074 29.5039 33.8388C29.5039 35.8702 31.1533 37.517 33.188 37.517H33.1959C35.2306 37.517 36.88 35.8702 36.88 33.8388C36.88 31.8074 35.2306 30.1606 33.1959 30.1606Z" fill="#171826"/>
<path d="M62.7001 30.1609H62.6922C60.6575 30.1609 59.0081 31.8077 59.0081 33.8391C59.0081 35.8704 60.6575 37.5172 62.6922 37.5172H62.7001C64.7348 37.5172 66.3842 35.8704 66.3842 33.8391C66.3842 31.8077 64.7348 30.1609 62.7001 30.1609Z" fill="#171826"/>
</svg>
