<svg width="33" height="32" viewBox="0 0 33 32" fill="none" xmlns="http://www.w3.org/2000/svg">
<g id="slack" clip-path="url(#clip0_1636_20390)">
<path id="&#239;&#134;&#152;" d="M6.46429 20.2857V16.9286H3.10714C1.25 16.9286 -0.25 18.4286 -0.25 20.2857C-0.25 22.0714 1.25 23.6429 3.10714 23.6429C4.89286 23.6429 6.46429 22.0714 6.46429 20.2857ZM8.10714 20.2857V28.6429C8.10714 30.5 9.67857 32 11.4643 32C13.3214 32 14.8214 30.5 14.8214 28.6429V20.2857C14.8214 18.4286 13.3214 16.9286 11.4643 16.9286C9.67857 16.9286 8.10714 18.4286 8.10714 20.2857ZM11.4643 6.78571H14.8214V3.42857C14.8214 1.57143 13.3214 0 11.4643 0C9.67857 0 8.10714 1.57143 8.10714 3.42857C8.10714 5.21429 9.67857 6.78571 11.4643 6.78571ZM11.4643 8.42857H3.10714C1.25 8.42857 -0.25 9.92857 -0.25 11.7857C-0.25 13.6429 1.25 15.1429 3.10714 15.1429H11.4643C13.3214 15.1429 14.8214 13.6429 14.8214 11.7857C14.8214 9.92857 13.3214 8.42857 11.4643 8.42857ZM24.9643 11.7857V15.1429H28.3214C30.1786 15.1429 31.75 13.6429 31.75 11.7857C31.75 9.92857 30.1786 8.42857 28.3214 8.42857C26.5357 8.42857 24.9643 9.92857 24.9643 11.7857ZM23.3214 11.7857V3.42857C23.3214 1.57143 21.8214 0 19.9643 0C18.1071 0 16.6071 1.57143 16.6071 3.42857V11.7857C16.6071 13.6429 18.1071 15.1429 19.9643 15.1429C21.8214 15.1429 23.3214 13.6429 23.3214 11.7857ZM19.9643 25.2857H16.6071V28.6429C16.6071 30.5 18.1071 32 19.9643 32C21.8214 32 23.3214 30.5 23.3214 28.6429C23.3214 26.8571 21.8214 25.2857 19.9643 25.2857ZM19.9643 23.6429H28.3214C30.1786 23.6429 31.75 22.0714 31.75 20.2857C31.75 18.4286 30.1786 16.9286 28.3214 16.9286H19.9643C18.1071 16.9286 16.6071 18.4286 16.6071 20.2857C16.6071 22.0714 18.1071 23.6429 19.9643 23.6429Z" fill="#ECF3E8"/>
</g>
<defs>
<clipPath id="clip0_1636_20390">
<rect width="32" height="32" fill="white" transform="translate(0.25)"/>
</clipPath>
</defs>
</svg>
