<svg xmlns="http://www.w3.org/2000/svg" viewBox="0 0 400 400"><defs><style>.a{fill:#010f28;}</style></defs><path class="a" d="M161,79.94l.48-.08c16.73-2.6,29.06-4.39,34.53-5.13a1.94,1.94,0,0,0,1.15-.37c0-.56-2.07-1.93-5.17-4s-5.87-3.59-10.35-3.59c-5.1,0-12.26.29-21.29.85l-.36,0-.3-.2c-3-2-6.06-3.88-8.29-5.08-2.66-1.33-2.9-1.15-4.24.85l-.43.7c-.76,1.23-1.71,2.75-3,4.61l-.28.41-.5,0c-14.22,1.29-26,2.63-31.52,3.57-7.61,1.19-9.89,3.4-12.51,6.63a28.88,28.88,0,0,0-3.2,6.55c-.56,1.4-1.2,3-2,4.66a1.54,1.54,0,0,0-.09.19,7.24,7.24,0,0,0,1.66-.14c12.88-2.22,24.79-4.17,35.39-5.81l2.44-.38-1.39,2c-33,48.34-54.82,81.35-66.6,100.92a2.67,2.67,0,0,0-.21.42l.32,0a29.39,29.39,0,0,0,4.74-.6,79,79,0,0,1,11.28-1.28c4,0,6.52-.86,10.3-5.74,23.08-30.15,58.38-82.41,69.13-99.69Z"/><path class="a" d="M341.42,58.58A200,200,0,0,0,0,200,198.55,198.55,0,0,0,36,314.59c-3.31,5.08-6.36,9.83-9.09,14.15a3.39,3.39,0,0,0-.42.93,24.31,24.31,0,0,0,5.33-1.25,86,86,0,0,1,12.44-2.9,201.78,201.78,0,0,0,14.3,15.9A200,200,0,1,0,341.42,58.58ZM326.69,326.69a179.16,179.16,0,0,1-253.38,0q-6.45-6.45-12.15-13.42c9.71-12.95,20.09-26.94,29.09-39.53l.26-.37.45-.06c10.3-1.52,22.36-3.76,33.07-6.14a18.32,18.32,0,0,0,6.77-2.73c2.92-2.45,5.4-6.62,5.69-8.11a7.19,7.19,0,0,0-1.31.13c-9.14,1.14-20.44,2.32-32.7,3.42l-2.27.2,1.3-1.87c6.26-9,12.8-18.44,18.28-26.48a42.33,42.33,0,0,0,5.33-9.81l.21-.64.67-.08c10.2-1.36,22.6-3.26,36.87-5.64,5.84-1,7.78-1.8,9.41-3.87a20.17,20.17,0,0,0,3.59-5.69.3.3,0,0,0,0-.08c-14.22.54-34.41,2.17-52.9,4.24l-.62.07-.36-.5a43.11,43.11,0,0,0-5.49-6.67c-.42-.37-.69-.4-.86-.37-.43,0-1.22.43-2.54,2.12-.91,1.21-2,2.5-3,3.85-.74.91-1.5,1.84-2.26,2.81l-.27.35-.44.05c-7.09.87-13.93,1.87-20,2.76l-3.25.48a5.36,5.36,0,0,0-1.32.37,2.65,2.65,0,0,0,0,.51c.32,2.58,1.63,6.23,3.07,7.52,1.06,1.06,4.52,1.36,10.31.93l2.31-.18-1.37,1.87c-8.22,11.26-17.65,24.71-25.78,36.37l-.28.4-.49.05c-5.51.57-9.92,1.08-13.47,1.54-.27,0-.71.11-.85.32s-.25.55.19,1.87c1.27,3.34,2.6,6.84,4.91,8.53l.84.61-.59.86c-4.46,6.52-8.79,12.91-12.92,19.07A179.2,179.2,0,0,1,317.65,64.87a3.16,3.16,0,0,0-.2.27c-8.45,13.15-18.68,28.6-29.51,45-8.16,12.32-16.6,25.07-24.28,36.85h0l0,0a73.75,73.75,0,0,1-21.12,18.88c-7.19,4.28-14.37,6.84-19.19,6.84a19.05,19.05,0,0,1-9.06-1.84l-.63-.35.08-.71c1.85-16.87,24.77-35.24,44-40.38.49-.11,1.28-.4,1.44-1.13.12-.52.14-2.48-4.39-6.05-3.93-3.11-6.95-4.38-10.44-4.38-11.39,0-29.38,11.07-39.3,24.17q-5.43,7.29-6.66,14.11c-10.77,10.51-23.57,16.73-35.2,16.73a24.77,24.77,0,0,1-7.51-1.08l-.67-.23-.06-.7a27.1,27.1,0,0,1,.36-6.57l.1-.67.65-.19c10.9-3.26,20.89-7.45,27.41-11.5,9.31-5.81,14-11,14-15.33,0-3.22-1.68-6-5.61-9.44l-.19-.21c-4.59-6.89-7.91-8.24-12.09-8.24-11.07,0-27.7,10.08-37.08,22.47-6.68,9-9.58,19.32-7,25.06a28.18,28.18,0,0,0,12.31,13.49h0c2.7,1.43,6,2.1,10.26,2.1,12.67,0,28.31-8.52,40-20.85.21,5.15,2.29,10.07,6.28,14.72,5,5.62,7.87,7.49,15.26,7.49,10.72,0,24.77-10.36,35.11-21.57-2.12,4-3.12,6.77-3.12,9,0,2.63,1.17,4.9,6.88,7.4,3.82,1.68,7.08,2.64,9,2.64s3.17-1.63,8.3-10.9c1-2,2.17-3.93,3.25-5.82.7-1.2,1.38-2.38,2-3.57l.16-.22c10.21-10.83,21.32-20.72,29.73-26.46l3.56-2.42-2,3.8a140.12,140.12,0,0,1-8.23,13c-3.55,5.19-7.22,10.56-9.51,15.52-2.25,5.24-1.29,10,2.85,14.16,3.82,3.65,6.3,4.82,10.19,4.82,10.72,0,23-10.94,28.06-16.72,1.28-1.43,1.28-2.24,1.28-2.54a12.71,12.71,0,0,0-.07-1.55c-7,6.25-14.91,10.63-22.37,12.33l-1.52.34.22-1.54c.76-5.19,5.82-13.56,10.72-21.65a136.36,136.36,0,0,0,7.64-13.65c2.47-5.59,2.15-8.11-1.43-11.24a10.13,10.13,0,0,0-7-3.15c-4,0-14.14,5.61-27.22,15l-4.18,3,2.64-4.41c11.24-18.84,20.32-32.92,28.58-44.33,4.51-6.25,6.86-11,8.07-14.5a177.89,177.89,0,0,1,48,122.08,179.81,179.81,0,0,1-7.37,51.11c-5.24,1.28-11.95,2.5-20,3.64l-2.3.32,1.25-1.95c10.51-16.48,11.05-19.22,4.83-24.41a24,24,0,0,1-2.83-3c-1.22-1.48-1.85-2.19-2.81-2.19-1.25,0-3.77,2.55-7.69,7.78-7.22,9.69-12.78,17.45-18.6,25.93l-.27.4-.49.06c-4.52.5-9.19,1-13.27,1.7-2,.25-2.37.55-2.4.58.05.78,1.64,3.95,3.81,5.95a6.73,6.73,0,0,0,3.81,1.43l1.75.16-.94,1.48c-2.62,4.11-5.42,8.41-8.47,13.09l-3.5,5.37h0l0,.05c-12,16-28.54,25.88-43.23,25.88a24.46,24.46,0,0,1-7.51-1.08l-.67-.22-.06-.7a27.61,27.61,0,0,1,.35-6.58l.11-.66.64-.2c10.91-3.25,20.9-7.45,27.42-11.5,9.3-5.81,14-11,14-15.32,0-3.23-1.68-6.05-5.61-9.45l-.19-.21c-4.59-6.89-7.91-8.24-12.1-8.24-11.06,0-27.7,10.08-37.07,22.47a42.43,42.43,0,0,0-7.21,14.68c-11.16,10.73-25.23,17.86-36.36,17.86a12.4,12.4,0,0,1-6.15-1.33l-.34-.18-.14-.35c-.85-2.12-.53-4.75-.06-7.26l.12-.62.59-.2c11.68-3.94,21.06-8,27.11-11.85,12.32-7.91,14-12.61,14-16.52,0-3-2.12-6.65-5.4-9.24l-.22-.23c-1.35-2-2.52-2.73-4.84-4.28l-.34-.22a14,14,0,0,0-8.12-2.73c-10.47,0-25.71,9.2-34.69,20.94-4.81,6.33-7.64,12.15-8.54,17.44-10.83,12.71-19.75,19.2-25.58,18.51l-.86-.11-.08-.87c-.43-5.22,4-14.66,13.51-28.87,39.74-59.27,44.07-67.38,44.07-73.89,0-4.67-4.07-6.94-9.81-9.63-1-.45-1.35-.29-1.92.51-15.65,22.14-33.62,48.89-56.53,84.19-5.81,9-9.56,18.86-9.56,25.21a12,12,0,0,0,4.9,10.28c3.68,2.94,7.2,4.37,10.77,4.37,9.14,0,19.51-8,30.92-23.91a18.3,18.3,0,0,0,4.41,9.77h0c7.53,8.93,12.59,10.73,18.32,10.73,12.62,0,28.13-8.79,40.06-21.83a12,12,0,0,0,.9,4.69A28.14,28.14,0,0,0,245,320.22h0c2.71,1.43,6,2.1,10.27,2.1,13.4,0,30.13-9.53,41.95-23-3.29,8.49-1.19,13.09,3.54,17.5h0a18.17,18.17,0,0,0,12.76,5.51c11.2,0,23.88-9.12,31.34-16.93l.28-.29A181.38,181.38,0,0,1,326.69,326.69ZM157.19,158.32l1.25-2.53c5.92-12,18.56-23.06,29.41-25.68l1.23-.3.08,1.26c.4,5.69-2.59,10.42-10,15.81-3.95,3.12-11.38,7.11-19.36,10.37ZM317.5,311.82l-1.44.09.34-1.41c1.62-6.65,9.48-19.3,27.65-47l.24-.35,4.68-1.1c3.74-.88,6.69-1.57,8.7-2.07,8.22-2.05,11-3.88,12.7-5.39l.54-.58A177.2,177.2,0,0,1,347.37,302a7.31,7.31,0,0,0,.64-1.57l.24-.77c.3-1,.58-1.86.75-2.54C340.2,305.45,327.94,311.19,317.5,311.82Zm-63.09-13,1.25-2.53c5.92-12,18.56-23,29.41-25.68l1.23-.3.08,1.27c.4,5.69-2.6,10.41-10,15.8-3.95,3.12-11.38,7.11-19.36,10.37Zm-62.94.23,1.32-2.6c5.69-11.23,18.3-24.76,28.74-27l1-.21.28,1c1.66,5.81-1.49,11.83-9.11,17.39-4.38,3.24-11.13,6.83-19.53,10.37Z"/></svg>