<svg width="33" height="32" viewBox="0 0 33 32" fill="none" xmlns="http://www.w3.org/2000/svg">
<g id="icon/twitter">
<path id="vector" d="M27.3531 10.5601C27.3694 10.7951 27.3694 11.0302 27.3694 11.2675C27.3694 18.4967 21.866 26.8341 11.8027 26.8341V26.8298C8.83001 26.8341 5.91904 25.9826 3.4165 24.3771C3.84876 24.4291 4.28318 24.4551 4.71869 24.4562C7.18223 24.4584 9.57535 23.6318 11.5135 22.1097C9.17234 22.0652 7.1194 20.5388 6.40222 18.3103C7.22231 18.4685 8.06733 18.436 8.87226 18.2161C6.31988 17.7004 4.4836 15.4579 4.4836 12.8535C4.4836 12.8297 4.4836 12.8069 4.4836 12.7842C5.24412 13.2078 6.09563 13.4429 6.96664 13.4689C4.56269 11.8622 3.82168 8.66419 5.27337 6.16382C8.05108 9.58179 12.1494 11.6597 16.5489 11.8796C16.108 9.97938 16.7103 7.98818 18.1317 6.65241C20.3352 4.58105 23.8008 4.68722 25.8722 6.88967C27.0975 6.64808 28.2718 6.19849 29.3465 5.56148C28.9381 6.82791 28.0833 7.90368 26.9415 8.58728C28.0259 8.45944 29.0854 8.1691 30.0832 7.72601C29.3487 8.8267 28.4235 9.78546 27.3531 10.5601Z" fill="#ECF3E8"/>
</g>
</svg>
