<svg width="33" height="24" viewBox="0 0 33 24" fill="none" xmlns="http://www.w3.org/2000/svg">
<g id="Group">
<path id="Vector" d="M31.8409 4.3058C31.4719 2.93513 30.3911 1.85441 29.0205 1.48538C26.5164 0.800049 16.4999 0.800049 16.4999 0.800049C16.4999 0.800049 6.4835 0.800049 3.97939 1.45902C2.63508 1.82805 1.528 2.93513 1.15898 4.3058C0.5 6.80991 0.5 12.0026 0.5 12.0026C0.5 12.0026 0.5 17.2217 1.15898 19.6995C1.528 21.0701 2.60872 22.1509 3.97939 22.5199C6.50986 23.2052 16.4999 23.2052 16.4999 23.2052C16.4999 23.2052 26.5164 23.2052 29.0205 22.5462C30.3911 22.1772 31.4719 21.0965 31.8409 19.7258C32.4999 17.2217 32.4999 12.029 32.4999 12.029C32.4999 12.029 32.5262 6.80991 31.8409 4.3058Z" fill="#F1F4F3"/>
<path id="Vector_2" d="M13.3105 16.8L21.64 12.0027L13.3105 7.20532V16.8Z" fill="#0E1110"/>
</g>
</svg>
